0
SECTION
2
HEADER
9
$ACADVER
1
AC1015
0
ENDSEC
0
SECTION
2
TABLES
0
TABLE
2
LAYER
70
4
0
LAYER
2
WALL
70
0
62
7
6
CONTINUOUS
0
LAYER
2
DOOR
70
0
62
3
6
CONTINUOUS
0
LAYER
2
COLUMN
70
0
62
1
6
CONTINUOUS
0
LAYER
2
TEXT
70
0
62
4
6
CONTINUOUS
0
ENDTAB
0
ENDSEC
0
SECTION
2
BLOCKS
0
BLOCK
8
0
2
DOOR_SWING
70
0
10
0.0
20
0.0
30
0.0
3
DOOR_SWING
1

0
LINE
8
DOOR
10
0.0
20
0.0
11
900.0
21
0.0
0
ARC
8
DOOR
10
900.0
20
0.0
40
900.0
50
180.0
51
270.0
0
ENDBLK
0
ENDSEC
0
SECTION
2
ENTITIES
0
LWPOLYLINE
8
WALL
100
AcDbEntity
100
AcDbPolyline
90
4
70
1
43
0.0
10
0.0
20
0.0
10
12000.0
20
0.0
10
12000.0
20
8000.0
10
0.0
20
8000.0
0
LINE
8
WALL
10
0.0
20
4000.0
11
12000.0
21
4000.0
0
LINE
8
WALL
10
5000.0
20
0.0
11
5000.0
21
4000.0
0
LWPOLYLINE
8
WALL
90
2
70
0
10
9000.0
20
4000.0
42
0.5
10
9000.0
20
5200.0
0
CIRCLE
8
COLUMN
10
1000.0
20
1000.0
40
300.0
0
CIRCLE
8
COLUMN
10
11000.0
20
1000.0
40
300.0
0
CIRCLE
8
COLUMN
10
1000.0
20
7000.0
40
300.0
0
INSERT
8
DOOR
2
DOOR_SWING
10
5000.0
20
4000.0
41
0.9
42
0.9
50
270.0
0
TEXT
8
TEXT
10
800.0
20
2600.0
40
420.0
1
MEETING ROOM
0
TEXT
8
TEXT
10
800.0
20
6200.0
40
420.0
1
OFFICE
0
TEXT
8
TEXT
10
5400.0
20
1800.0
40
420.0
50
90.0
1
CORRIDOR
0
LINE
8
TEXT
10
0.0
20
-600.0
11
12000.0
21
-600.0
0
TEXT
8
TEXT
10
4800.0
20
-1000.0
40
400.0
1
12000
0
ENDSEC
0
EOF
