# Tamias render-scene debug
v -0.500000000 0.000000000 0.500000000
v -0.500000000 1.000000000 0.500000000
v 0.500000000 1.000000000 0.500000000
v 0.500000000 0.000000000 0.500000000
v 0.500000000 0.000000000 0.500000000
v 0.500000000 1.000000000 0.500000000
v 0.500000000 1.000000000 -0.500000000
v 0.500000000 0.000000000 -0.500000000
v 0.500000000 0.000000000 -0.500000000
v 0.500000000 1.000000000 -0.500000000
v -0.500000000 1.000000000 -0.500000000
v -0.500000000 0.000000000 -0.500000000
v -0.500000000 0.000000000 -0.500000000
v -0.500000000 1.000000000 -0.500000000
v -0.500000000 1.000000000 0.500000000
v -0.500000000 0.000000000 0.500000000
v -0.500000000 0.000000000 0.500000000
v 0.500000000 0.000000000 0.500000000
v 0.500000000 0.000000000 -0.500000000
v -0.500000000 0.000000000 -0.500000000
v -0.500000000 1.000000000 0.500000000
v 0.500000000 1.000000000 0.500000000
v 0.500000000 1.000000000 -0.500000000
v -0.500000000 1.000000000 -0.500000000
vn 0.000000000 0.000000000 1.000000000
vn 0.000000000 0.000000000 1.000000000
vn 0.000000000 0.000000000 1.000000000
vn 0.000000000 0.000000000 1.000000000
vn 1.000000000 0.000000000 -0.000000000
vn 1.000000000 -0.000000000 -0.000000000
vn 1.000000000 -0.000000000 -0.000000000
vn 1.000000000 -0.000000000 -0.000000000
vn 0.000000000 0.000000000 -1.000000000
vn 0.000000000 0.000000000 -1.000000000
vn 0.000000000 0.000000000 -1.000000000
vn 0.000000000 0.000000000 -1.000000000
vn -1.000000000 0.000000000 -0.000000000
vn -1.000000000 0.000000000 -0.000000000
vn -1.000000000 0.000000000 -0.000000000
vn -1.000000000 0.000000000 -0.000000000
vn -0.000000000 -1.000000000 -0.000000000
vn 0.000000000 -1.000000000 0.000000000
vn -0.000000000 -1.000000000 -0.000000000
vn -0.000000000 -1.000000000 -0.000000000
vn 0.000000000 1.000000000 -0.000000000
vn 0.000000000 1.000000000 -0.000000000
vn 0.000000000 1.000000000 -0.000000000
vn 0.000000000 1.000000000 -0.000000000
vt 0.000000000 0.000000000
vt 0.000000000 0.000000000
vt 0.000000000 0.000000000
vt 0.000000000 0.000000000
vt 0.000000000 0.000000000
vt 0.000000000 0.000000000
vt 0.000000000 0.000000000
vt 0.000000000 0.000000000
vt 0.000000000 0.000000000
vt 0.000000000 0.000000000
vt 0.000000000 0.000000000
vt 0.000000000 0.000000000
vt 0.000000000 0.000000000
vt 0.000000000 0.000000000
vt 0.000000000 0.000000000
vt 0.000000000 0.000000000
vt 0.000000000 0.000000000
vt 0.000000000 0.000000000
vt 0.000000000 0.000000000
vt 0.000000000 0.000000000
vt 0.000000000 0.000000000
vt 0.000000000 0.000000000
vt 0.000000000 0.000000000
vt 0.000000000 0.000000000
f 4/4/4 2/2/2 1/1/1
f 4/4/4 3/3/3 2/2/2
f 8/8/8 6/6/6 5/5/5
f 8/8/8 7/7/7 6/6/6
f 12/12/12 10/10/10 9/9/9
f 12/12/12 11/11/11 10/10/10
f 16/16/16 14/14/14 13/13/13
f 16/16/16 15/15/15 14/14/14
f 19/19/19 18/18/18 17/17/17
f 19/19/19 17/17/17 20/20/20
f 23/23/23 21/21/21 22/22/22
f 23/23/23 24/24/24 21/21/21
