<svg xmlns="http://www.w3.org/2000/svg" width="64" height="64" viewBox="0 -1 64 64">
  <g fill="none">
    <path d="M10 44 22 16 36 46 54 20" stroke="#8fb4dc" stroke-width="2"
          stroke-dasharray="5 4.01"/>
    <path d="M10 44C14 44 15 16 22 16c7 0 7 30 14 30 8 0 8-26 18-26"
          stroke="#000000" stroke-width="7.5"/>
    <path d="M10 44C14 44 15 16 22 16c7 0 7 30 14 30 8 0 8-26 18-26"
          stroke="#2a63a8" stroke-width="4.01"/>
  </g>
  <g fill="#2c9c3e" stroke="#000000" stroke-width="1.6">
    <circle cx="10" cy="44" r="3.8"/>
    <circle cx="54" cy="20" r="3.8"/>
  </g>
  <g fill="#c0392b" stroke="#000000" stroke-width="1.6">
    <circle cx="22" cy="16" r="3.4"/>
    <circle cx="36" cy="46" r="3.4"/>
  </g>
</svg>
